<svg width="48" height="48" viewBox="0 0 48 48" fill="none" xmlns="http://www.w3.org/2000/svg">
<circle cx="24" cy="24" r="24" fill="white"/>
<path fill-rule="evenodd" clip-rule="evenodd" d="M5 24.1061C5 33.5523 11.8606 41.4072 20.8333 43V29.2773H16.0833V24H20.8333V19.7773C20.8333 15.0273 23.8939 12.3894 28.2227 12.3894C29.5939 12.3894 31.0728 12.6 32.4439 12.8106V17.6667H30.0167C27.6939 17.6667 27.1667 18.8273 27.1667 20.3061V24H32.2333L31.3894 29.2773H27.1667V43C36.1394 41.4072 43 33.5538 43 24.1061C43 13.5975 34.45 5 24 5C13.55 5 5 13.5975 5 24.1061Z" fill="#4983F4"/>
</svg>
