<svg width="139" height="32" viewBox="0 0 139 32" fill="none" xmlns="http://www.w3.org/2000/svg">
<path d="M56.9201 13.004C57.3201 12.38 57.8721 11.876 58.5761 11.492C59.2801 11.108 60.1041 10.916 61.0481 10.916C62.1521 10.916 63.1521 11.196 64.0481 11.756C64.9441 12.316 65.6481 13.116 66.1601 14.156C66.6881 15.196 66.9521 16.404 66.9521 17.78C66.9521 19.156 66.6881 20.372 66.1601 21.428C65.6481 22.468 64.9441 23.276 64.0481 23.852C63.1521 24.412 62.1521 24.692 61.0481 24.692C60.1201 24.692 59.2961 24.5 58.5761 24.116C57.8721 23.732 57.3201 23.236 56.9201 22.628V30.884H52.8161V11.108H56.9201V13.004ZM62.7761 17.78C62.7761 16.756 62.4881 15.956 61.9121 15.38C61.3521 14.788 60.6561 14.492 59.8241 14.492C59.0081 14.492 58.3121 14.788 57.7361 15.38C57.1761 15.972 56.8961 16.78 56.8961 17.804C56.8961 18.828 57.1761 19.636 57.7361 20.228C58.3121 20.82 59.0081 21.116 59.8241 21.116C60.6401 21.116 61.3361 20.82 61.9121 20.228C62.4881 19.62 62.7761 18.804 62.7761 17.78ZM73.2092 6.74V24.5H69.1052V6.74H73.2092ZM75.3673 17.78C75.3673 16.404 75.6233 15.196 76.1353 14.156C76.6633 13.116 77.3753 12.316 78.2713 11.756C79.1673 11.196 80.1673 10.916 81.2713 10.916C82.2153 10.916 83.0393 11.108 83.7433 11.492C84.4633 11.876 85.0153 12.38 85.3993 13.004V11.108H89.5033V24.5H85.3993V22.604C84.9993 23.228 84.4393 23.732 83.7193 24.116C83.0153 24.5 82.1913 24.692 81.2473 24.692C80.1593 24.692 79.1673 24.412 78.2713 23.852C77.3753 23.276 76.6633 22.468 76.1353 21.428C75.6233 20.372 75.3673 19.156 75.3673 17.78ZM85.3993 17.804C85.3993 16.78 85.1113 15.972 84.5353 15.38C83.9753 14.788 83.2873 14.492 82.4713 14.492C81.6553 14.492 80.9593 14.788 80.3833 15.38C79.8233 15.956 79.5433 16.756 79.5433 17.78C79.5433 18.804 79.8233 19.62 80.3833 20.228C80.9593 20.82 81.6553 21.116 82.4713 21.116C83.2873 21.116 83.9753 20.82 84.5353 20.228C85.1113 19.636 85.3993 18.828 85.3993 17.804ZM97.9204 24.692C96.7524 24.692 95.7124 24.492 94.8004 24.092C93.8884 23.692 93.1684 23.148 92.6404 22.46C92.1124 21.756 91.8164 20.972 91.7524 20.108H95.8084C95.8564 20.572 96.0724 20.948 96.4564 21.236C96.8404 21.524 97.3124 21.668 97.8724 21.668C98.3844 21.668 98.7764 21.572 99.0484 21.38C99.3364 21.172 99.4804 20.908 99.4804 20.588C99.4804 20.204 99.2804 19.924 98.8804 19.748C98.4804 19.556 97.8324 19.348 96.9364 19.124C95.9764 18.9 95.1764 18.668 94.5364 18.428C93.8964 18.172 93.3444 17.78 92.8804 17.252C92.4164 16.708 92.1844 15.98 92.1844 15.068C92.1844 14.3 92.3924 13.604 92.8084 12.98C93.2404 12.34 93.8644 11.836 94.6804 11.468C95.5124 11.1 96.4964 10.916 97.6324 10.916C99.3124 10.916 100.632 11.332 101.592 12.164C102.568 12.996 103.128 14.1 103.272 15.476H99.4804C99.4164 15.012 99.2084 14.644 98.8564 14.372C98.5204 14.1 98.0724 13.964 97.5124 13.964C97.0324 13.964 96.6644 14.06 96.4084 14.252C96.1524 14.428 96.0244 14.676 96.0244 14.996C96.0244 15.38 96.2244 15.668 96.6244 15.86C97.0404 16.052 97.6804 16.244 98.5444 16.436C99.5364 16.692 100.344 16.948 100.968 17.204C101.592 17.444 102.136 17.844 102.6 18.404C103.08 18.948 103.328 19.684 103.344 20.612C103.344 21.396 103.12 22.1 102.672 22.724C102.24 23.332 101.608 23.812 100.776 24.164C99.9604 24.516 99.0084 24.692 97.9204 24.692ZM113.319 21.02V24.5H111.231C109.743 24.5 108.583 24.14 107.751 23.42C106.919 22.684 106.503 21.492 106.503 19.844V14.516H104.871V11.108H106.503V7.844H110.607V11.108H113.295V14.516H110.607V19.892C110.607 20.292 110.703 20.58 110.895 20.756C111.087 20.932 111.407 21.02 111.855 21.02H113.319ZM117.525 24.692C116.805 24.692 116.213 24.484 115.749 24.068C115.301 23.636 115.077 23.108 115.077 22.484C115.077 21.844 115.301 21.308 115.749 20.876C116.213 20.444 116.805 20.228 117.525 20.228C118.229 20.228 118.805 20.444 119.253 20.876C119.717 21.308 119.949 21.844 119.949 22.484C119.949 23.108 119.717 23.636 119.253 24.068C118.805 24.484 118.229 24.692 117.525 24.692ZM126.483 6.74V24.5H122.379V6.74H126.483ZM136.921 21.02V24.5H134.833C133.345 24.5 132.185 24.14 131.353 23.42C130.521 22.684 130.105 21.492 130.105 19.844V14.516H128.473V11.108H130.105V7.844H134.209V11.108H136.897V14.516H134.209V19.892C134.209 20.292 134.305 20.58 134.497 20.756C134.689 20.932 135.009 21.02 135.457 21.02H136.921Z" fill="white"/>
<path d="M16.3433 19.06L16.3614 18.9026C16.4134 18.452 16.44 18.0136 16.44 17.588C16.44 16.0999 16.1203 14.7494 15.4472 13.5691C14.7954 12.398 13.8744 11.4864 12.6989 10.852C11.5267 10.2194 10.2077 9.91602 8.768 9.91602C7.29572 9.91602 5.95057 10.2277 4.76019 10.8786C3.56673 11.5313 2.63119 12.4691 1.96521 13.6715L1.96515 13.6715L1.95953 13.6819C1.30816 14.8916 1 16.2761 1 17.804C1 19.3364 1.31805 20.7247 1.98921 21.9365C2.65519 23.139 3.59073 24.0767 4.78419 24.7294C5.97282 25.3794 7.30946 25.692 8.768 25.692C9.98078 25.692 11.1084 25.4685 12.1338 25.0024C13.1424 24.5439 13.9951 23.9022 14.6737 23.0745C15.359 22.258 15.836 21.3325 16.0971 20.3067L16.2291 19.788H16.2593L16.2842 19.5715L16.4144 19.06H16.3433ZM8.624 20.356C8.17269 20.356 7.83549 20.2243 7.55451 19.9768C7.49966 19.9223 7.44719 19.8599 7.39834 19.788H9.77539C9.6641 19.9776 9.53856 20.0974 9.40727 20.1771C9.23998 20.2786 8.99498 20.356 8.624 20.356ZM18.4343 13.6715L18.4342 13.6715L18.4286 13.6819C17.7772 14.8916 17.4691 16.2761 17.4691 17.804C17.4691 19.3319 17.7772 20.7164 18.4286 21.9261L18.4285 21.9261L18.4343 21.9365C19.098 23.1349 20.0225 24.0723 21.1994 24.7262L21.1994 24.7262L21.2052 24.7294C22.3939 25.3794 23.7305 25.692 25.1891 25.692C27.0424 25.692 28.67 25.1888 30.0083 24.1332C31.3448 23.0791 32.2004 21.6367 32.5968 19.8711L32.8704 18.652H31.6211H27.2531H26.5498L26.312 19.3138C26.1798 19.6816 26.0152 19.88 25.8592 19.9921C25.7057 20.1026 25.4793 20.188 25.1171 20.188C24.6651 20.188 24.3616 20.0356 24.1106 19.7154C23.8446 19.3607 23.6451 18.7668 23.6451 17.804C23.6451 16.8339 23.8476 16.2547 24.1064 15.922L24.1065 15.922L24.1145 15.9115C24.3706 15.573 24.6735 15.42 25.1171 15.42C25.4793 15.42 25.7057 15.5055 25.8592 15.6159C26.0152 15.728 26.1798 15.9264 26.312 16.2942L26.5498 16.956H27.2531H31.6211H32.865L32.5977 15.7412C32.2031 13.9476 31.3493 12.4906 30.0041 11.4475C28.6781 10.4068 27.05 9.91602 25.1891 9.91602C23.7305 9.91602 22.3939 10.2286 21.2052 10.8786L21.2052 10.8786L21.1994 10.8819C20.0225 11.5357 19.098 12.4731 18.4343 13.6715ZM37.5662 24.7325L37.5718 24.7355C38.7858 25.3793 40.1332 25.692 41.5923 25.692C43.0502 25.692 44.3966 25.3798 45.6099 24.737C46.8459 24.0908 47.8236 23.16 48.5263 21.9589C49.2514 20.7311 49.6003 19.3359 49.6003 17.804C49.6003 16.2776 49.2618 14.8916 48.5534 13.6785C47.8536 12.464 46.8856 11.522 45.6608 10.8726C44.4468 10.2287 43.0994 9.91602 41.6403 9.91602C40.1812 9.91602 38.8338 10.2287 37.6198 10.8726C36.3951 11.522 35.4271 12.4639 34.7273 13.6783C34.0188 14.8914 33.6803 16.2775 33.6803 17.804C33.6803 19.3409 34.0083 20.7329 34.6992 21.9467L34.6992 21.9467L34.705 21.9567C35.4038 23.152 36.3611 24.0836 37.5662 24.7325ZM42.8673 19.5789L42.8623 19.5841L42.8573 19.5894C42.4999 19.9678 42.0979 20.14 41.5923 20.14C41.0902 20.14 40.7034 19.9707 40.3668 19.6061C40.074 19.2733 39.8563 18.7218 39.8563 17.804C39.8563 16.8653 40.084 16.3277 40.3759 16.018L40.376 16.0181L40.3855 16.0077C40.719 15.6439 41.113 15.468 41.6403 15.468C42.1451 15.468 42.5333 15.6392 42.8712 16.0077L42.8762 16.0132L42.8813 16.0186C43.1957 16.3515 43.4243 16.8955 43.4243 17.804C43.4243 18.7052 43.1918 19.2452 42.8673 19.5789ZM9.77037 15.508H7.69051C7.95782 15.3133 8.28623 15.204 8.72 15.204C9.17647 15.204 9.50964 15.3164 9.77037 15.508Z" fill="#225DD0" stroke="white" stroke-width="2"/>
</svg>
